<?xml version="1.0" standalone="no"?>
<!DOCTYPE svg PUBLIC "-//W3C//DTD SVG 20010904//EN"
 "http://www.w3.org/TR/2001/REC-SVG-20010904/DTD/svg10.dtd">
<svg version="1.0" xmlns="http://www.w3.org/2000/svg"
 width="515.000000pt" height="515.000000pt" viewBox="0 0 515.000000 515.000000"
 preserveAspectRatio="xMidYMid meet">
<metadata>
Created by potrace 1.14, written by Peter Selinger 2001-2017
</metadata>
<g transform="translate(0.000000,515.000000) scale(0.100000,-0.100000)"
fill="#000000" stroke="none">
<path d="M3680 4861 c-373 -75 -643 -290 -769 -614 -84 -217 -85 -233 -86
-1016 0 -596 0 -604 20 -608 11 -1 192 -6 403 -9 l382 -6 1 58 c0 33 2 111 4
174 2 63 6 315 9 560 4 466 5 473 52 541 56 82 213 122 303 77 65 -32 123
-100 138 -161 2 -12 6 -80 8 -150 2 -71 6 -131 8 -133 6 -6 323 -15 590 -18
l217 -1 1 50 c4 194 -1 322 -16 405 -30 163 -57 247 -123 377 -15 29 -30 53
-34 53 -5 0 -8 6 -8 13 0 23 -129 165 -197 216 -37 28 -98 67 -135 86 -67 36
-222 89 -288 99 -19 3 -46 8 -60 12 -14 3 -95 7 -180 9 -116 2 -176 -1 -240
-14z"/>
<path d="M4139 3460 c-5 -202 -9 -649 -13 -1332 -4 -778 -3 -838 12 -839 9 0
28 -2 42 -5 25 -3 750 -14 751 -11 6 24 12 639 13 1326 l1 885 -402 0 -403 1
-1 -25z"/>
<path d="M1098 2995 c-2 -2 -21 -5 -43 -9 -73 -10 -99 -16 -164 -37 -271 -86
-482 -268 -604 -520 -96 -200 -103 -250 -112 -804 -13 -775 -14 -885 -2 -886
7 -1 193 -2 415 -3 l402 -2 0 501 c0 652 3 720 29 778 22 48 93 117 121 117 9
0 21 5 27 11 15 15 108 14 162 0 56 -16 132 -90 148 -146 7 -22 13 -102 14
-178 l2 -137 414 0 414 0 -6 148 c-6 143 -8 171 -19 277 -11 97 -45 232 -76
303 -5 12 -16 34 -22 50 -59 130 -187 283 -300 358 -99 66 -251 130 -353 150
-22 4 -47 9 -55 10 -85 18 -132 22 -251 22 -76 0 -139 -1 -141 -3z"/>
<path d="M2824 2565 c-2 -5 -5 -275 -7 -600 -5 -655 -5 -661 -70 -727 -41 -43
-114 -79 -167 -83 -65 -5 -144 22 -188 66 -70 68 -80 106 -81 319 l-1 85 -297
2 c-164 2 -344 3 -400 4 -56 0 -107 -2 -113 -6 -11 -7 -7 -325 6 -430 12 -104
57 -252 111 -364 52 -107 165 -249 239 -301 68 -47 134 -88 169 -104 22 -10
53 -24 69 -32 98 -47 293 -82 456 -82 384 1 692 150 888 431 78 112 152 288
167 399 3 23 8 54 10 68 10 51 15 220 20 568 5 377 8 770 6 787 -1 14 -812 14
-817 0z"/>
</g>
</svg>
